# xmcd
#
# Track frame offsets:
# 150
# 14448
# 24912
# 39041
# 52516
# 63769
# 72582
# 83208
# 98757
# 112906
# 126267
# 141431
# 153673
#
# Disc length: 2240 seconds
#
# Revision: 0
# Processed by: cddbd v1.5.1PL2 Copyright (c) Steve Scherf et al.
# Submitted via: Audion 3.0.2 (http://www.panic.com/audion/)
#
DISCID=9e08be0d
DTITLE=King Adora - Who Do You Love
DYEAR=1900
DGENRE=
TTITLE0=Drag
TTITLE1=9" Of Pure Malice
TTITLE2=Born To Lose
TTITLE3=Kamikaze
TTITLE4=Depression
TTITLE5=Sweet Abandon
TTITLE6=Boy For Rent
TTITLE7=Maniac Love
TTITLE8=Come
TTITLE9=Death By Rock 'n' Roll
TTITLE10=FearAnd Loathing
TTITLE11=Love So Volatile
TTITLE12=Asleep
EXTD=
EXTT0=
EXTT1=
EXTT2=
EXTT3=
EXTT4=
EXTT5=
EXTT6=
EXTT7=
EXTT8=
EXTT9=
EXTT10=
EXTT11=
EXTT12=
PLAYORDER=
